<?xml version="1.0" encoding="UTF-8"?><svg id="_レイヤー_2" xmlns="http://www.w3.org/2000/svg" viewBox="0 0 180 180"><defs><style>.cls-1{fill:#f5f0e8;}.cls-2{fill:#231815;}</style></defs><g id="_レイヤー_1-2"><rect class="cls-1" width="180" height="180"/><path class="cls-2" d="M169.87,57.07c-.02-.72.11-1.47,0-2.18-.11-.71-.9-1.26-1.1-1.95-.18-.64-.26-1.27-.58-1.85-.33-.59-.56-1.21-1.12-1.58-.55-.36-1.21-.42-1.86-.32-.67.1-1.41.23-1.7.84-.66.72-.65.67-1.12,1.52.43.55.61,1,.89,1.63.28.63.63,1.28.78,1.96.14.68.06,1.41.08,2.1.03.74-.03,1.49-.12,2.22-.09.73-.48,1.39-.69,2.11-.2.71-.26,1.46-.56,2.14-.3.67-.29,1.55-.68,2.18-.39.63-.96,1.19-1.42,1.76-.47.57-1.2.93-1.73,1.44-.54.51-.93,1.22-1.52,1.66-.49.36-1.06.68-1.61.96-.55.28-1.27.02-1.87.13-.93.17-1.83.39-2.77.26-.72-.1-1.4-.36-2.11-.51-.71-.14-1.4-.33-2.1-.51-.7-.19-1.52,0-2.21-.22-.69-.23-1.34-.59-2.01-.86-.67-.27-1.46-.34-2.11-.65-.65-.31-1.01-1.21-1.64-1.56-.63-.36-1.31-.64-1.93-1.04-.62-.39-1.14-.92-1.75-1.33-.61-.4-1.24-.78-1.86-1.18-.62-.4-1.15-.94-1.77-1.32-.63-.39-1.38-.59-2.01-.94-.65-.36-1.19-.96-1.85-1.26-.67-.3-1.65.18-2.34-.05-.7-.23-1.25-1.01-1.97-1.14-.71-.12-1.38-.06-2.12-.07-.96-.73-1.13-.55-1.96-1.41.37.49-.29-.13-1.79-.88-.64-.31-1.24-.91-2.14-1.11-.74-.16-1.54-.42-2.44-.37-.84,0-1.58.05-2.24-.02-.83-.09-1.65.09-2.3-.12-.74-.24-1.11-1.2-1.76-1.56-.62-.34-1.23-.7-1.9-1.13-.57-.37-1.28-.64-1.99-1.06-.59-.35-1.48-.24-2.21-.61-.67-.34-1.19-.97-1.86-1.31-.67-.34-1.47-.4-2.15-.73-.67-.33-1.25-.86-1.92-1.19-.67-.33-1.47-.41-2.14-.73-.68-.32-1.14-1.1-1.82-1.41-.68-.32-1.52-.27-2.21-.58-.68-.31-1.43-.46-2.12-.76-.69-.3-1.16-1.1-1.85-1.39-.69-.29-1.27-.87-1.96-1.15-.7-.28-1.64.07-2.34-.19-.7-.27-1.19-1.1-1.9-1.35s-1.55-.12-2.26-.36c-.71-.24-1.51-.18-2.23-.41-.71-.22-1.37-.62-2.09-.83-.72-.21-1.46-.32-2.18-.52-.72-.19-1.48-.23-2.21-.4-.73-.17-1.36-.75-2.1-.9-.73-.15-1.55.18-2.29.05-.74-.13-1.38-.86-2.12-.96-.74-.11-1.56.39-2.3.3-.74-.09-1.42-.84-2.17-.9-.75-.06-1.51.09-2.26.06-.75-.04-1.5-.06-2.25-.07-.75,0-1.49.25-2.24.27-.75.02-1.48.25-2.22.3-.75.05-1.47.2-2.21.28-.74.08-1.54-.32-2.28-.21-.74.11-1.38.26-2.12.4.65-.43.5-1.19.51-1.97,0-.78.13-1.75-.51-2.2-.72.18-1.36.97-2.08,1.14-.72.18-1.65-.51-2.36-.33s-1.41.45-2.12.63c-.72.18-1.31.83-2.03,1.01s-1.55-.11-2.26.07c-.72.18-1.35.58-2.07.76-.83-.15-1.62.11-2.2-.07-.88-.27-1.62-.57-2.08-.87-.81-.53-.59-1.52-.77-2.09-.21-.68-.54-1.58-1.15-2.15-.88.39-1.53,1.04-1.8,1.51-.32.56-.51,1.24-.64,2.04-.09.5.15,1.21,0,1.89l-.13-.12-.79-.44-4.75.44-3.36,1.1s-.77,2.01.4,2.87c1.16.86,5.14.44,5.14.44h.1c-.13.4-.24.82-.38,1.23-.24.69-.19,1.39-.31,2.11-.12.72-.28,1.37-.27,2.09.01.73-.53,1.52-.38,2.23.15.71.29,1.5.58,2.17.24.55.84.95,1.08,1.5.25.55.66,1.06.76,1.65.09.56.18,1.19.11,1.76-.07.56-.56,1.06-.69,1.61-.2.86-.21,1.76-.4,2.62-.2.86-.4,1.72-.6,2.58-.17.74-.78,1.54-.68,2.3.09.7.86,1.16,1.31,1.64.44.47.94.91,1.59,1.15.61.23,1.29.32,1.96.34.67.02,1.33-.11,1.95-.32.65-.22,1.37-.28,1.96-.62.58-.34,1.24-.61,1.8-1.01.55-.39.98-.95,1.53-1.35.55-.4,1.03-.88,1.61-1.22.48-.29.86-1,1.39-1.16.55-.17,1.28-.05,1.85.06.72.14,1.36.61,1.8,1.11.42.48.8,1.12,1.05,1.79.23.61-.13,1.43.03,2.1.16.67.84,1.22.99,1.84.16.68.63,1.21.9,1.85.27.64.56,1.21.92,1.8.36.6.54,1.27.99,1.8.45.54.68,1.28,1.2,1.74.52.46.95,1.13,1.53,1.51.58.38,1.73.11,2.37.39.62.74.53.94.86,1.84-.08.78-.35,1.62-.43,2.4-.08.78-.21,1.55-.29,2.32-.08.78-.26,1.54-.34,2.32-.05.53-.03,1.11.09,1.63.15.64.3,1.44.72,1.93.44.52,1.29.69,1.77,1.16.48.48,1.21.71,1.69,1.19.48.48,1,.98,1.43,1.51.42.52.16,1.53.47,2.13.31.61.62,1.14.74,1.8.12.67.56,1.35.41,2.03-.25,1.07-1.1,2.39-.31,3.16.26.26.7.26,1.06.37.6.17,1.22.21,1.83.33.61.12,1.21.29,1.82.35.88.09,1.67-.07,2.44-.51.77-.45,1.12-.99.65-1.74-.5-.47-.68-.3-1.14-.81-.37-.4-.15-.63-.4-1.12-.06,0,.08-.18.02-.19-.68-.12-1.55-.28-1.97-.85-.41-.54-.24-1.47-.39-2.13-.16-.71-.22-1.42-.31-2.15-.08-.72-.15-1.49-.41-2.17-.22-.59-.67-1.12-1.02-1.65-.35-.54-.96-.92-1.27-1.46-.31-.56-.16-1.27-.24-1.91-.1-.71-.58-1.47-.41-2.18.17-.7,1.19-1.22,1.33-1.91.15-.71,0-1.74-.18-2.45.98,1.11.85,1.29,1.57,2.59.07.8.61,1.36,1.03,2.02.41.65.34,1.78.98,2.27.62.47,1.58.48,2.31.77.74.29,1.48.65,2.24.74.75.09,1.38-.1,1.96-.13.66-.04,1.27-.03,1.94-.14.57-.1,1.03-.32,1.77-.41-1.03.6-.57,1.43-1.32,2.35-.41.51-.99,1.03-1.14,1.67-.15.66.5,1.19.77,1.81.45.99,1.2,1.52,2.12,2.09.66.42,1.29.93,1.94,1.38.65.45,1.01,1.29,1.63,1.78.62.49,1.22.99,1.79,1.52.58.54,1.19,1.03,1.7,1.62.52.6,1.16,1.1,1.6,1.75.45.65,1.18,1.19,1.52,1.9.34.71.45,1.57.68,2.33.14.48-.02,1.1.29,1.49.3.38.92.33,1.35.55.7.36,1.35.82,2.05,1.18.7.36,1.47.58,2.17.94.7.36,1.39,1.38,2.09,1.74.73-.83,1.59-1.99,1.98-3.03.39-1.04-.08-2.22-.82-3.05-.35-.4-.58-.89-.92-1.3-.59-.71-1.02-1.58-1.28-2.47-.26-.89-.59-1.56-1.51-1.44-.71.09-1.3.09-2.01.06-.49-.02-1.15.2-1.5-.15-.51-.52-1.02-1.07-1.51-1.61-.49-.54-.59-1.43-1.06-1.99-.47-.56-.99-1.07-1.45-1.65-.6-.76-1.55-1.4-1.85-2.33-.21-.64-.27-1.41-.19-2.05.08-.64.65-1.18.96-1.77.3-.57.83-.92,1.29-1.41.44-.48.7-1.46,1.24-1.82,1.16-.02,1.17.31,2.32.47,1.14.16,1.15.08,2.3.24,1.15.16,1.16.08,2.3.24,1.15.16,1.09.54,2.24.7,1.15.16,1.12.31,2.27.48.82.14,1.71-.19,2.53-.05.82.14,2.34.74,3.31.9.97.16.94.33,1.91.49.97.16,1.13-.44,1.86.21.81.71.42.9.73,1.93.08.75.15,1.48.29,2.22.14.74.76,1.37.95,2.09.19.73-.27,1.65-.03,2.36.24.71.95,1.26,1.24,1.95.29.69.76,1.29,1.09,1.96.34.67.82,1.24,1.2,1.88.38.65.37,1.54.79,2.15.43.62.71,1.36,1.18,1.95.47.59,1.29.88,1.81,1.43.58.62.93,1.48,1.54,2.08.61.6,1.55.88,2.15,1.48.11.12.15.15.24.29.57.98.19,1.2.75,2.18.56.98.74.88,1.3,1.86.56.98.2,1.19.75,2.17.56.98,1.29.57,1.85,1.55.56.98.03,1.28.59,2.26.56.98,1,.73,1.56,1.72.56.99.22,1.18.78,2.17.56.99.29,1.14.83,2.13,0,.05.46-.06.46-.02-.06.67-.13,1.31,0,1.97.13.65.46,1.22.75,1.82.29.6.2,1.5.64,2.01.44.51.87.92,1.43,1.28.62,1.03,1.16.74,1.65,1.83.49,1.09.44,1.13.88,2.24.25.92-.12,2-.12,2.97,0,1.11.36,2.3,1.29,2.9.79.52,1.98.73,2.81.28.83-.46,1.1-1.45,1.71-2.18-.03-.43-.69-.07-.71-.5-.04-1.37.52-1.33.69-2.69-.16-.95-.47-1.41-.79-1.87-.43-.6-.5-1.36-1.05-1.93-.4-.42-1.48-.51-1.86-1.35-.32-.69-.28-1.55-.64-2.23-.36-.68-1.14-1.17-1.44-1.87-.3-.7.12-1.64-.01-2.4-.12-.66-.22-1.27-.2-1.94.02-.66-.41-1.37-.33-2.04.08-.66.86-1.25.93-1.91.07-.7-.64-1.46-.62-2.17.02-.71.57-1.41.53-2.12-.04-.71-.42-1.38-.51-2.09-.09-.7.37-1.51.23-2.2-.14-.69-.95-1.23-1.15-1.91-.2-.68-.03-1.48-.28-2.14-.25-.66-.35-1.42-.65-2.06-.4-.85-1.65-1.45-1.8-2.38-.06-.38-.08-1.34-.18-2.48-.06-.75-.15-1.61-.2-2.46-.05-.81.38-1.63.41-2.36.18.42.46.57.64,1.27.45.86.7,1.71,1.26,2.39.56.68,1.32,1.2,1.77,2.06.33.64,1.02,1.06,1.69,1.62.59.49.88,1.46,1.53,1.94.67.49,1.86.38,2.38.92.61.62.36,1.65.46,2.41.08.65.55,1.27.57,1.93.02.66-.37,1.35-.33,2.01.04.67.09,1.39.24,2.03.14.65,1.01,1.02,1.34,1.61.3.53.7.89,1.1,1.34.4.45.53,1.14.92,1.6.35.42.56,1.12.87,1.89.24.59.96,1.1,1.18,1.81.19.64.27,1.37.45,2.06.18.67.33,1.37.5,2.04.17.7.51,1.34.67,1.99.18.73.22,1.43.39,2.05.22.8.43,1.44.65,1.93.23.52.33.81.87.98.78.23,1.33-.13,1.73-.85.4-.73.72-1.49.91-2.3.19-.81.41-1.64.4-2.47-.02-.83-.38-1.62-.61-2.42-.23-.8-.48-1.58-.92-2.28-.41-.66-.71-1.4-1.14-2.05-.44-.66-1.14-1.21-1.28-1.99-.12-.63-.17-1.35-.05-1.98.11-.61,1.01-1.06,1.18-1.68.17-.61.26-1.32.32-1.94.07-.81-.69-1.58-.87-2.36-.18-.77.01-1.66-.25-2.43-.26-.76-.97-1.4-1.18-2.17-.21-.78.39-1.65.39-2.45,0-.57-.65-1.16-.62-1.73.04-.58-.07-1.01-.24-1.56-.19-.64-.33-1.11-.8-1.55-.46-.42-.98-.71-1.56-1.03-.57-.31-1.06-.77-1.62-1.05-.55-.28-.86-.95-1.34-1.38-.5-.45-.78-.88-1.03-1.43-.27-.59-.47-.78-.24-1.43.43-.36.16-.52.54-.93-.05-.67.05-1.11.1-1.77.05-.66,0-1.36.1-2.02.1-.66.56-1.26.68-1.92.12-.66.52-1.27.61-1.93.11-.71-.51-1.51-.45-2.23.06-.72.73-1.4.74-2.13.01-.72-.15-1.45-.18-2.17-.03-.72-.27-1.43-.35-2.15-.08-.72-.42-1.39-.54-2.1-.12-.71-.14-1.43-.31-2.13-.17-.7-.38-1.38-.59-2.07-.21-.69-.16-1.47-.42-2.14-.26-.68-.33-1.44-.63-2.1-.3-.66-1.24-1-1.58-1.63-.09-.18.49-.24.4-.41.78-.81.59-.87,1.59-1.37.76.23,1.46-.37,2.21-.11.75.26,1.21,1.32,1.96,1.6.74.27,1.49.54,2.23.82.74.28,1.47.59,2.22.87.74.27,1.62.19,2.37.44.75.26,1.42.78,2.18,1.01s1.71-.26,2.48-.07c.76.19,1.43.85,2.21.98.78.13,1.59.07,2.38.13.79.07,1.58.41,2.37.41.8,0,1.54-.71,2.32-.8.79-.09,1.54-.12,2.31-.31.77-.19,1.57-.19,2.31-.48.73-.3,1.44-.62,2.13-1.03.62-.37.99-1.02,1.54-1.48.55-.46.95-.99,1.42-1.52.47-.54,1.18-.85,1.57-1.45.39-.6.94-1.11,1.26-1.76.31-.64.74-1.27.98-1.95.23-.68.03-1.49.18-2.19.15-.7.65-1.36.71-2.07s-.1-1.46-.11-2.17Z"/></g></svg>