<?xml version="1.0" encoding="UTF-8"?><svg id="_レイヤー_2" xmlns="http://www.w3.org/2000/svg" viewBox="0 0 32 32"><defs><style>.cls-1{fill:#f5f0e8;}.cls-2{fill:#231815;}</style></defs><g id="_レイヤー_1-2"><rect class="cls-1" width="32" height="32"/><path class="cls-2" d="M28.98,10.65c0-.12.02-.24,0-.35-.02-.12-.15-.21-.18-.32-.03-.1-.04-.21-.09-.3-.05-.1-.09-.2-.18-.26-.09-.06-.2-.07-.3-.05-.11.02-.23.04-.28.14-.11.12-.11.11-.18.25.07.09.1.16.14.27.04.1.1.21.13.32.02.11,0,.23.01.34,0,.12,0,.24-.02.36-.01.12-.08.23-.11.34-.03.12-.04.24-.09.35-.05.11-.05.25-.11.35-.06.1-.16.19-.23.29-.08.09-.19.15-.28.23-.09.08-.15.2-.25.27-.08.06-.17.11-.26.16-.09.05-.21,0-.3.02-.15.03-.3.06-.45.04-.12-.02-.23-.06-.34-.08-.12-.02-.23-.05-.34-.08-.11-.03-.25,0-.36-.04-.11-.04-.22-.1-.33-.14-.11-.04-.24-.05-.34-.11-.11-.05-.16-.2-.27-.25-.1-.06-.21-.1-.31-.17-.1-.06-.19-.15-.29-.22-.1-.07-.2-.13-.3-.19-.1-.07-.19-.15-.29-.22-.1-.06-.22-.1-.33-.15-.11-.06-.19-.16-.3-.2-.11-.05-.27.03-.38,0-.11-.04-.2-.16-.32-.19-.12-.02-.22-.01-.35-.01-.16-.12-.18-.09-.32-.23.06.08-.05-.02-.29-.14-.1-.05-.2-.15-.35-.18-.12-.03-.25-.07-.4-.06-.14,0-.26,0-.36,0-.14-.02-.27.01-.37-.02-.12-.04-.18-.2-.29-.25-.1-.06-.2-.11-.31-.18-.09-.06-.21-.1-.32-.17-.1-.06-.24-.04-.36-.1-.11-.05-.19-.16-.3-.21-.11-.05-.24-.07-.35-.12-.11-.05-.2-.14-.31-.19-.11-.05-.24-.07-.35-.12-.11-.05-.19-.18-.3-.23-.11-.05-.25-.04-.36-.09-.11-.05-.23-.07-.34-.12-.11-.05-.19-.18-.3-.23-.11-.05-.21-.14-.32-.19-.11-.05-.27.01-.38-.03-.11-.04-.19-.18-.31-.22s-.25-.02-.37-.06c-.12-.04-.25-.03-.36-.07-.12-.04-.22-.1-.34-.14-.12-.03-.24-.05-.35-.08-.12-.03-.24-.04-.36-.07s-.22-.12-.34-.15c-.12-.02-.25.03-.37,0-.12-.02-.22-.14-.34-.16-.12-.02-.25.06-.37.05-.12-.01-.23-.14-.35-.15-.12,0-.25.02-.37,0-.12,0-.24-.01-.37-.01-.12,0-.24.04-.36.04-.12,0-.24.04-.36.05-.12,0-.24.03-.36.05-.12.01-.25-.05-.37-.03-.12.02-.22.04-.34.07.11-.07.08-.19.08-.32,0-.13.02-.28-.08-.36-.12.03-.22.16-.34.19-.12.03-.27-.08-.38-.05s-.23.07-.35.1c-.12.03-.21.13-.33.16s-.25-.02-.37.01c-.12.03-.22.09-.34.12-.13-.02-.26.02-.36-.01-.14-.04-.26-.09-.34-.14-.13-.09-.1-.25-.12-.34-.03-.11-.09-.26-.19-.35-.14.06-.25.17-.29.25-.05.09-.08.2-.1.33-.01.08.02.2,0,.31l-.02-.02-.13-.07-.77.07-.55.18s-.12.33.06.47c.19.14.84.07.84.07h.02c-.02.06-.04.13-.06.2-.04.11-.03.23-.05.34-.02.12-.05.22-.04.34,0,.12-.09.25-.06.36.02.12.05.24.1.35.04.09.14.15.18.24.04.09.11.17.12.27.01.09.03.19.02.29-.01.09-.09.17-.11.26-.03.14-.03.29-.07.43-.03.14-.07.28-.1.42-.03.12-.13.25-.11.37.01.11.14.19.21.27.07.08.15.15.26.19.1.04.21.05.32.05.11,0,.22-.02.32-.05.1-.04.22-.05.32-.1.09-.05.2-.1.29-.16.09-.06.16-.15.25-.22.09-.06.17-.14.26-.2.08-.05.14-.16.23-.19.09-.03.21,0,.3,0,.12.02.22.1.29.18.07.08.13.18.17.29.04.1-.02.23,0,.34.03.11.14.2.16.3.03.11.1.2.15.3.04.1.09.2.15.29.06.1.09.21.16.29.07.09.11.21.19.28.08.08.15.18.25.24.09.06.28.02.39.06.1.12.09.15.14.3-.01.13-.06.26-.07.39-.01.13-.03.25-.05.38-.01.13-.04.25-.06.38,0,.09,0,.18.02.27.02.1.05.23.12.31.07.08.21.11.29.19.08.08.2.12.27.19.08.08.16.16.23.24.07.08.03.25.08.35.05.1.1.19.12.29.02.11.09.22.07.33-.04.17-.18.39-.05.51.04.04.11.04.17.06.1.03.2.03.3.05s.2.05.3.06c.14.01.27-.01.4-.08.12-.07.18-.16.11-.28-.08-.08-.11-.05-.19-.13-.06-.07-.02-.1-.07-.18-.01,0,.01-.03,0-.03-.11-.02-.25-.05-.32-.14-.07-.09-.04-.24-.06-.35-.03-.12-.04-.23-.05-.35-.01-.12-.02-.24-.07-.35-.04-.1-.11-.18-.17-.27-.06-.09-.16-.15-.21-.24-.05-.09-.03-.21-.04-.31-.02-.12-.09-.24-.07-.35.03-.11.19-.2.22-.31.02-.12,0-.28-.03-.4.16.18.14.21.26.42.01.13.1.22.17.33.07.11.06.29.16.37.1.08.26.08.38.13.12.05.24.11.36.12.12.01.22-.02.32-.02.11,0,.21,0,.31-.02.09-.02.17-.05.29-.07-.17.1-.09.23-.21.38-.07.08-.16.17-.18.27-.02.11.08.19.13.29.07.16.19.25.34.34.11.07.21.15.32.22.11.07.16.21.26.29.1.08.2.16.29.25.09.09.19.17.28.26.09.1.19.18.26.29.07.11.19.19.25.31.06.11.07.25.11.38.02.08,0,.18.05.24.05.06.15.05.22.09.11.06.22.13.33.19.11.06.24.09.35.15.11.06.23.22.34.28.12-.14.26-.32.32-.49.06-.17-.01-.36-.13-.5-.06-.06-.09-.15-.15-.21-.1-.12-.17-.26-.21-.4-.04-.14-.1-.25-.24-.23-.12.01-.21.01-.33,0-.08,0-.19.03-.24-.03-.08-.08-.17-.17-.25-.26-.08-.09-.1-.23-.17-.32-.08-.09-.16-.17-.23-.27-.1-.12-.25-.23-.3-.38-.03-.1-.04-.23-.03-.33.01-.1.11-.19.16-.29.05-.09.14-.15.21-.23.07-.08.11-.24.2-.3.19,0,.19.05.38.08.19.03.19.01.37.04.19.03.19.01.37.04.19.03.18.09.36.11.19.03.18.05.37.08.13.02.28-.03.41,0,.13.02.38.12.54.15.16.03.15.05.31.08.16.03.18-.07.3.03.13.12.07.15.12.31.01.12.02.24.05.36.02.12.12.22.15.34.03.12-.04.27,0,.38s.15.2.2.32c.05.11.12.21.18.32.05.11.13.2.2.31.06.11.06.25.13.35.07.1.12.22.19.32.08.1.21.14.29.23.09.1.15.24.25.34.1.1.25.14.35.24.02.02.03.02.04.05.09.16.03.19.12.35.09.16.12.14.21.3.09.16.03.19.12.35.09.16.21.09.3.25.09.16,0,.21.1.37.09.16.16.12.25.28.09.16.04.19.13.35s.05.18.14.35c0,0,.08-.01.07,0-.01.11-.02.21,0,.32.02.11.07.2.12.3.05.1.03.24.1.33.07.08.14.15.23.21.1.17.19.12.27.3.08.18.07.18.14.36.04.15-.02.33-.02.48,0,.18.06.37.21.47.13.08.32.12.46.04.13-.07.18-.24.28-.35,0-.07-.11-.01-.11-.08,0-.22.08-.22.11-.44-.03-.15-.08-.23-.13-.3-.07-.1-.08-.22-.17-.31-.07-.07-.24-.08-.3-.22-.05-.11-.05-.25-.1-.36-.06-.11-.19-.19-.23-.3-.05-.11.02-.27,0-.39-.02-.11-.04-.21-.03-.32,0-.11-.07-.22-.05-.33.01-.11.14-.2.15-.31.01-.11-.1-.24-.1-.35s.09-.23.09-.34-.07-.22-.08-.34c-.01-.11.06-.25.04-.36-.02-.11-.15-.2-.19-.31-.03-.11,0-.24-.05-.35s-.06-.23-.11-.33c-.06-.14-.27-.24-.29-.39,0-.06-.01-.22-.03-.4-.01-.12-.02-.26-.03-.4,0-.13.06-.27.07-.38.03.07.07.09.1.21.07.14.11.28.2.39s.22.19.29.33c.05.1.17.17.27.26.1.08.14.24.25.31.11.08.3.06.39.15.1.1.06.27.07.39.01.11.09.21.09.31,0,.11-.06.22-.05.33,0,.11.02.23.04.33.02.1.16.17.22.26.05.09.11.14.18.22.07.07.09.19.15.26.06.07.09.18.14.31.04.1.16.18.19.29.03.1.04.22.07.33.03.11.05.22.08.33.03.11.08.22.11.32.03.12.04.23.06.33.04.13.07.23.11.31.04.08.05.13.14.16.13.04.22-.02.28-.14.07-.12.12-.24.15-.37.03-.13.07-.27.06-.4,0-.14-.06-.26-.1-.39-.04-.13-.08-.26-.15-.37-.07-.11-.12-.23-.19-.33-.07-.11-.19-.2-.21-.32-.02-.1-.03-.22,0-.32.02-.1.16-.17.19-.27.03-.1.04-.21.05-.32.01-.13-.11-.26-.14-.38-.03-.13,0-.27-.04-.39-.04-.12-.16-.23-.19-.35-.03-.13.06-.27.06-.4,0-.09-.11-.19-.1-.28,0-.09-.01-.16-.04-.25-.03-.1-.05-.18-.13-.25-.07-.07-.16-.12-.25-.17-.09-.05-.17-.12-.26-.17-.09-.05-.14-.15-.22-.22-.08-.07-.13-.14-.17-.23-.04-.1-.08-.13-.04-.23.07-.06.03-.08.09-.15,0-.11,0-.18.02-.29,0-.11,0-.22.02-.33.02-.11.09-.21.11-.31.02-.11.08-.21.1-.31.02-.12-.08-.25-.07-.36,0-.12.12-.23.12-.35,0-.12-.02-.24-.03-.35,0-.12-.04-.23-.06-.35s-.07-.23-.09-.34c-.02-.12-.02-.23-.05-.35-.03-.11-.06-.22-.1-.34-.03-.11-.03-.24-.07-.35-.04-.11-.05-.23-.1-.34-.05-.11-.2-.16-.26-.27-.02-.03.08-.04.06-.07.13-.13.1-.14.26-.22.12.04.24-.06.36-.02.12.04.2.21.32.26.12.04.24.09.36.13s.24.1.36.14c.12.04.26.03.39.07.12.04.23.13.35.16s.28-.04.4-.01c.12.03.23.14.36.16.13.02.26.01.39.02.13.01.26.07.38.07.13,0,.25-.11.38-.13.13-.01.25-.02.38-.05.13-.03.26-.03.38-.08.12-.05.23-.1.35-.17.1-.06.16-.17.25-.24.09-.07.15-.16.23-.25.08-.09.19-.14.26-.24.06-.1.15-.18.2-.29.05-.1.12-.21.16-.32.04-.11,0-.24.03-.36.02-.11.11-.22.12-.34s-.02-.24-.02-.35Z"/></g></svg>